<svg xmlns="http://www.w3.org/2000/svg" width="20" height="20" viewBox="0 0 20 20">
    <g fill="none" fill-rule="evenodd">
        <path d="M0 0h20v20H0z"/>
        <path fill="#000" d="M18.694 4.519a7.512 7.512 0 0 1-2.147.589 3.75 3.75 0 0 0 1.644-2.068 7.481 7.481 0 0 1-2.374.907 3.73 3.73 0 0 0-2.729-1.18 3.737 3.737 0 0 0-3.64 4.589 10.613 10.613 0 0 1-7.704-3.905 3.737 3.737 0 0 0 1.157 4.99 3.733 3.733 0 0 1-1.693-.468v.047a3.74 3.74 0 0 0 2.998 3.665 3.715 3.715 0 0 1-1.687.065 3.745 3.745 0 0 0 3.492 2.596 7.502 7.502 0 0 1-5.534 1.547 10.573 10.573 0 0 0 5.729 1.68c6.875 0 10.634-5.695 10.634-10.635a9.73 9.73 0 0 0-.011-.483 7.595 7.595 0 0 0 1.865-1.936z"/>
    </g>
</svg>
