<svg xmlns="http://www.w3.org/2000/svg" width="20" height="20" viewBox="0 0 20 20">
    <g fill="none" fill-rule="evenodd">
        <path d="M0 0h20v20H0z"/>
        <path fill="#000" d="M13.111 11.466c-.711 0-1.288.797-1.288 1.781 0 .984.577 1.781 1.288 1.781.71 0 1.287-.797 1.287-1.781 0-.984-.576-1.781-1.287-1.781zm4.482-4.637c.146-.362.154-2.416-.628-4.383 0 0-1.793.196-4.507 2.059-.569-.157-1.532-.236-2.494-.236-.963 0-1.926.079-2.495.236-2.713-1.862-4.506-2.059-4.506-2.059-.782 1.967-.774 4.021-.628 4.383-.918.997-1.48 2.195-1.48 3.832 0 7.115 5.903 7.229 7.393 7.229l1.716.002 1.716-.002c1.49 0 7.393-.113 7.393-7.229-.001-1.637-.562-2.835-1.48-3.832zM9.991 17.015h-.056c-3.734 0-6.643-.445-6.643-4.074 0-.869.307-1.677 1.036-2.346 1.216-1.117 3.273-.525 5.607-.525l.028-.001a.253.253 0 0 0 .027.001c2.335 0 4.392-.592 5.607.525a3.069 3.069 0 0 1 1.035 2.346c.002 3.628-2.906 4.074-6.641 4.074zm-3.175-5.549c-.71 0-1.287.797-1.287 1.781 0 .984.576 1.781 1.287 1.781s1.288-.797 1.288-1.781c0-.984-.577-1.781-1.288-1.781z"/>
    </g>
</svg>
