<svg xmlns="http://www.w3.org/2000/svg" width="20" height="20" viewBox="0 0 20 20">
    <g fill="none" fill-rule="evenodd">
        <path d="M0 0h20v20H0z"/>
        <path fill="#2A4552" d="M15.18 15.683l2.265-10.971c.11-.455.055-.796-.166-1.024-.22-.227-.442-.227-.773-.113L3.2 8.86c-.276.114-.497.228-.608.398-.11.17-.11.285-.055.398.055.114.221.228.497.284l3.424 1.08 7.896-5.116c.22-.17.386-.17.497-.113.055.057.055.113-.056.227L8.39 12.045l-.276 3.638c.221 0 .442-.114.718-.341l1.656-1.649 3.424 2.615c.718.398 1.104.17 1.27-.625z"/>
    </g>
</svg>
